PathFileType  4	(X/Y/Z) C:\Users\antoi\Documents\MyRepositories\mobilecap\ResultsAnalysis
DataRate	CameraRate	NumFrames	NumMarkers	Units	OrigDataRate	OrigDataStartFrame	OrigNumFrames
100.0	100.0	5	51	mm	100.0	116	184
Frame#	Time	r_knee			r_shank_antsup			r_ankle			r_calc			r_5meta			r_toe			L_knee			L_shank_antsup			L_ankle			L_calc			L_5meta			L_toe			r_sh2			r_sh3			r_sh4			L_sh2			L_sh3			r_thigh1			r_thigh2			r_thigh3			r_thigh4			r_thigh5			L_thigh1			L_thigh2			L_thigh3			L_thigh4			r.ASIS			r.PSIS			L.ASIS			L.PSIS			C7			R_Shoulder			L_Shoulder			R_Sternum			L_Sternum			R_humerus			R_elbow_med			R_elbow_lat			R_forearm			R_wrist_radius			R_wrist_ulna			L_humerus			L_elbow_med			L_elbow_lat			L_forearm			L_wrist_radius			L_wrist_ulna			R_HJC			L_HJC			R_HJC_reg			L_HJC_reg			
		X1	Y1	Z1	X2	Y2	Z2	X3	Y3	Z3	X4	Y4	Z4	X5	Y5	Z5	X6	Y6	Z6	X7	Y7	Z7	X8	Y8	Z8	X9	Y9	Z9	X10	Y10	Z10	X11	Y11	Z11	X12	Y12	Z12	X13	Y13	Z13	X14	Y14	Z14	X15	Y15	Z15	X16	Y16	Z16	X17	Y17	Z17	X18	Y18	Z18	X19	Y19	Z19	X20	Y20	Z20	X21	Y21	Z21	X22	Y22	Z22	X23	Y23	Z23	X24	Y24	Z24	X25	Y25	Z25	X26	Y26	Z26	X27	Y27	Z27	X28	Y28	Z28	X29	Y29	Z29	X30	Y30	Z30	X31	Y31	Z31	X32	Y32	Z32	X33	Y33	Z33	X34	Y34	Z34	X35	Y35	Z35	X36	Y36	Z36	X37	Y37	Z37	X38	Y38	Z38	X39	Y39	Z39	X40	Y40	Z40	X41	Y41	Z41	X42	Y42	Z42	X43	Y43	Z43	X44	Y44	Z44	X45	Y45	Z45	X46	Y46	Z46	X47	Y47	Z47	X48	Y48	Z48	X49	Y49	Z49	X50	Y50	Z50	X51	Y51	Z51	

116	1.15000000	978.31095	625.81399	-40.22275	916.45404	487.21170	-49.73922	629.09759	262.59733	-88.05926	583.80201	280.76052	-161.59052	680.24517	127.02709	-44.80068	736.12137	118.54568	-86.45295	889.33228	605.43533	-362.13025	933.16295	410.82696	-334.35392	855.15476	107.06016	-328.92010	796.71661	76.88683	-267.55239	999.52479	33.84867	-360.06039	1039.21113	62.58916	-299.96365	840.72500	404.24950	-64.82826	859.36812	531.27196	-19.45043	781.78762	450.34692	-27.04160	869.69223	416.46048	-393.69267	860.32380	300.42674	-374.67754	962.81355	912.85629	-14.14711	998.75618	808.27498	-9.23365	945.08752	766.61288	-8.65968	856.86798	878.04026	-41.61118	894.94503	767.03323	-36.00111	965.57409	897.18136	-369.27439	954.30576	761.38243	-365.98064	859.14047	908.14171	-387.63048	851.16484	772.46744	-390.53037	950.46472	1205.86016	-69.92776	777.40680	1220.94870	-173.38941	975.35482	1159.58987	-344.15062	783.72475	1216.22388	-265.32813	894.91045	1662.06278	-402.93307	933.01351	1688.40545	-213.65327	969.50429	1553.62287	-532.06111	1011.64684	1582.89561	-318.23324	1020.23150	1560.65592	-370.43114	788.88547	1502.96920	-68.62336	657.30634	1434.45369	-95.86893	674.46738	1473.40925	-31.86346	682.06679	1276.45128	62.07682	677.96774	1185.41841	93.20427	648.06242	1200.98351	110.87984	983.89957	1254.66013	-525.01113	889.06149	1182.65067	-481.86441	923.58382	1167.13319	-548.74569	1029.96850	991.78184	-522.33636	1069.04631	925.74302	-495.92194	1045.26223	917.22569	-521.40566	877.57269	1105.19267	-99.04555	885.55012	1079.23380	-294.64561	891.33430	1099.79683	-107.89535	903.95431	1090.36047	-291.49362	
117	1.16000000	992.15848	627.39182	-40.20440	933.58916	487.25915	-49.38218	652.04353	255.26564	-86.78048	605.85452	271.61991	-160.19796	707.66601	121.64097	-43.05824	763.62543	114.84651	-84.83656	894.97089	605.50049	-361.57904	937.05195	410.43411	-333.03091	855.98839	107.59870	-328.27601	797.09529	77.01728	-267.06743	999.69257	34.19262	-359.80052	1039.59942	62.33824	-299.51495	860.23971	402.52369	-64.05137	875.48916	529.95931	-19.01707	799.98439	447.06879	-26.36327	874.22306	416.50663	-393.06378	863.74006	300.56051	-374.06868	973.54306	914.12039	-14.07710	1010.62273	810.01636	-9.22229	957.31395	767.75362	-8.48877	867.89614	878.22186	-41.45057	907.04754	767.79756	-35.58405	973.19348	896.77491	-369.02713	961.08489	761.05745	-365.49042	866.69053	908.36393	-387.93445	857.90285	772.95303	-390.61620	958.51221	1206.04811	-70.04766	785.54165	1220.92416	-173.73573	983.73105	1159.68516	-344.32922	792.01083	1216.17931	-265.59710	903.07772	1662.01923	-403.41033	941.29606	1688.40139	-214.11834	977.51280	1553.40960	-532.52549	1019.79518	1582.76053	-318.71232	1028.38168	1560.55624	-370.90340	797.22666	1502.98478	-68.92202	665.63970	1434.52073	-96.06585	682.79230	1473.54564	-32.09786	689.96185	1276.64200	62.00440	685.73415	1185.66032	93.27259	655.65349	1201.30070	110.87710	993.30646	1254.53806	-525.17533	898.99971	1181.97912	-481.74328	933.45364	1166.60706	-548.71153	1041.40335	992.21977	-522.11062	1080.85515	926.59619	-495.40997	1057.30001	917.81345	-521.00559	885.76371	1105.29059	-99.23583	893.95337	1079.27259	-294.81921	899.47443	1099.86257	-108.09964	912.41056	1090.37694	-291.74154	
118	1.17000000	1005.70357	628.85396	-40.33482	950.79568	487.18459	-49.18041	675.55772	247.29630	-85.35037	628.36038	261.87618	-158.51611	735.98082	115.74016	-41.66665	791.91655	110.89203	-83.70801	900.49696	605.56691	-361.11923	940.91533	410.07167	-331.85158	856.71336	108.14895	-327.75418	797.52007	77.11449	-266.60833	999.85326	34.50357	-359.56443	1039.89792	62.15214	-299.12238	879.86771	400.55638	-63.42864	891.63735	528.24969	-18.52037	818.40494	443.30164	-25.52658	878.61465	416.54739	-392.50604	866.99781	300.71369	-373.49820	984.17242	915.32096	-14.19606	1022.28079	811.64758	-9.44599	969.40233	768.81282	-8.43987	878.76822	878.40779	-41.31268	918.87904	768.51716	-35.19644	980.76793	896.40066	-368.71745	967.80503	760.75647	-365.02121	874.12476	908.62863	-388.25674	864.64929	773.34038	-390.69458	966.51701	1206.17767	-70.16892	793.60309	1220.85103	-174.06272	992.09570	1159.76536	-344.50866	800.25540	1216.12906	-265.87685	911.18567	1662.01719	-403.75041	949.48058	1688.37219	-214.44127	985.51766	1553.32910	-532.91051	1027.87677	1582.65367	-319.07315	1036.47403	1560.51036	-371.27473	805.61193	1502.86921	-69.06770	674.00935	1434.44858	-96.06394	691.20202	1473.48465	-32.11973	698.06350	1276.59384	62.00344	693.74966	1185.61479	93.33463	663.52177	1201.31667	110.93824	1002.61098	1254.53538	-525.27708	908.85234	1181.45019	-481.51311	943.18721	1166.20638	-548.57965	1052.63149	992.75417	-521.84315	1092.40318	927.53455	-494.85353	1069.09792	918.49761	-520.56274	893.90444	1105.33375	-99.44320	902.32053	1079.29590	-295.01433	907.57279	1099.82904	-108.36725	920.88329	1090.38277	-292.04958	
119	1.18000000	1018.94015	630.18655	-40.61899	968.05827	487.03393	-49.13512	699.62616	238.81531	-83.79298	651.34089	251.59633	-156.61711	765.13224	109.48260	-40.58095	820.93716	106.79531	-82.99648	905.90519	605.62939	-360.74364	944.76062	409.74053	-330.78866	857.33659	108.71207	-327.33620	797.97255	77.20924	-266.18957	1000.00488	34.78488	-359.35078	1040.11182	62.00437	-298.77354	899.57061	398.38625	-62.97343	907.78343	526.20778	-17.98525	837.02284	439.11240	-24.57428	882.89524	416.57354	-392.01753	870.14227	300.88691	-372.98233	994.69125	916.43737	-14.49179	1033.73371	813.14614	-9.90290	981.38035	769.76250	-8.52908	889.48262	878.57496	-41.17018	930.47071	769.13809	-34.87342	988.30912	896.04479	-368.34475	974.43932	760.46037	-364.56705	881.48213	908.92032	-388.59111	871.39256	773.63117	-390.74151	974.48907	1206.24344	-70.30105	801.58859	1220.73731	-174.35521	1000.44716	1159.82137	-344.69196	808.46183	1216.07186	-266.16675	919.23655	1662.05826	-403.95185	957.56888	1688.32363	-214.62093	993.51765	1553.37867	-533.19815	1035.90591	1582.58389	-319.31027	1044.51149	1560.51651	-371.53991	814.02032	1502.64070	-69.06668	682.40690	1434.24350	-95.87982	699.67983	1473.23979	-31.95429	706.37314	1276.33177	62.07658	702.00174	1185.30262	93.39524	671.68045	1201.05861	111.06737	1011.81178	1254.64830	-525.32263	918.60595	1181.06045	-481.19328	952.79208	1165.92990	-548.36616	1063.64583	993.37483	-521.53390	1103.71906	928.53916	-494.29223	1080.65578	919.26386	-520.08624	901.99808	1105.32160	-99.66573	910.64370	1079.29989	-295.22904	915.61837	1099.70733	-108.70409	929.37045	1090.37225	-292.41670	
120	1.19000000	1031.86154	631.38093	-41.06445	985.32384	486.84215	-49.25048	724.24093	229.96239	-82.14129	674.81905	240.86688	-154.58552	795.03223	103.04082	-39.73910	850.60297	102.67488	-82.60841	911.19816	605.68007	-360.43644	948.57407	409.43130	-329.82450	857.87490	109.28745	-326.99897	798.42770	77.34231	-265.82647	1000.14436	35.03795	-359.15801	1040.25926	61.87685	-298.46226	919.31854	396.05987	-62.69055	923.89040	523.90917	-17.45962	855.81268	434.58172	-23.57019	887.07317	416.57642	-391.59107	873.19586	301.07413	-372.52665	1005.08516	917.44650	-14.94436	1044.99275	814.49378	-10.58712	993.25676	770.58504	-8.77771	900.03336	878.70010	-41.00933	941.85238	769.62110	-34.65329	995.82368	895.68194	-367.92248	980.97761	760.14771	-364.12137	888.82253	909.20300	-388.92147	878.12580	773.83279	-390.74534	982.44015	1206.23990	-70.45214	809.49972	1220.58837	-174.60547	1008.78193	1159.84094	-344.88113	816.64308	1215.99548	-266.46390	927.23105	1662.13892	-404.00938	965.56388	1688.25763	-214.65621	1001.50840	1553.54857	-533.37186	1043.89870	1582.55153	-319.41802	1052.50113	1560.56650	-371.69286	822.43995	1502.31035	-68.92838	690.82796	1433.90765	-95.53817	708.20868	1472.82590	-31.62702	714.87982	1275.87246	62.22401	710.48354	1184.74635	93.46377	680.12015	1200.54990	111.26241	1020.90766	1254.86764	-525.31475	928.24257	1180.80403	-480.80151	962.27495	1165.77419	-548.08661	1074.44357	994.07252	-521.18216	1114.83430	929.59368	-493.75907	1091.97613	920.09829	-519.58628	910.05231	1105.25215	-99.89993	918.92077	1079.27481	-295.45922	923.59197	1099.51823	-109.11174	937.87438	1090.33176	-292.83640	
